<?xml version="1.0" encoding="utf-8"?>
<!-- Generator: Adobe Illustrator 16.0.0, SVG Export Plug-In . SVG Version: 6.00 Build 0)  -->
<!DOCTYPE svg PUBLIC "-//W3C//DTD SVG 1.1//EN" "http://www.w3.org/Graphics/SVG/1.1/DTD/svg11.dtd">
<svg version="1.1" id="Layer_1" xmlns="http://www.w3.org/2000/svg" xmlns:xlink="http://www.w3.org/1999/xlink" x="0px" y="0px"
	 width="199.438px" height="51.313px" viewBox="0 0 199.438 51.313" enable-background="new 0 0 199.438 51.313"
	 xml:space="preserve">
<path fill="#FFFFFF" d="M37.833,51.358h-9V-0.046h25.833v30.234H37.833V51.358z M37.833,21.113h7.833V9.028h-7.833V21.113z"/>
<polygon fill="#FFFFFF" points="83.499,51.313 57.667,51.313 57.667,0 66.667,0 66.667,42.289 74.499,42.289 74.499,0 83.499,0 "/>
<polygon fill="#FFFFFF" points="169.46,8.938 169.46,-0.001 144.085,-0.001 144.085,8.938 152.272,8.938 152.272,42.374 
	144.085,42.374 144.085,51.312 169.46,51.312 169.46,42.374 161.272,42.374 161.272,8.938 "/>
<polygon fill="#FFFFFF" points="25.833,43.611 10.58,8.995 16.833,8.995 16.833,16.996 25.833,16.996 25.833,-0.047 0,-0.047 
	0,7.322 15.42,42.316 9,42.316 9,34.155 0,34.155 0,49.094 0,51.358 25.833,51.358 "/>
<polygon fill="#FFFFFF" points="123.874,27.123 133.495,51.312 141.038,51.312 141.085,-0.001 132.085,-0.001 132.063,23.359 
	122.772,-0.001 114.874,-0.001 114.874,51.312 123.874,51.312 "/>
<polygon fill="#FFFFFF" points="181.46,30.734 189.84,51.279 194.07,51.279 199.438,51.279 189.347,26.016 199.438,0 189.46,0.004 
	181.46,21.368 181.46,0.004 172.46,0.004 172.46,51.279 181.46,51.279 "/>
<polygon fill="#FFFFFF" points="86.499,0 86.499,8.938 94.687,8.938 94.687,51.313 103.687,51.313 103.687,8.938 111.874,8.938 
	111.874,0 "/>
</svg>
